<?xml version="1.0" encoding="UTF-8"?>
<svg width="32px" height="38px" viewBox="0 0 32 38" version="1.1" xmlns="http://www.w3.org/2000/svg" xmlns:xlink="http://www.w3.org/1999/xlink">
    <!-- Generator: Sketch 49.3 (51167) - http://www.bohemiancoding.com/sketch -->
    <title>github1</title>
    <desc>Created with Sketch.</desc>
    <defs></defs>
    <g id="github1" stroke="none" stroke-width="1" fill="none" fill-rule="evenodd">
        <g id="Outline_Filled_5_" fill="#FFFFFF" fill-rule="nonzero">
            <path d="M22.592,37.166 L17.752,37.166 L12.908,37.166 C12.908,37.166 12.922,34.292 12.908,32.322 C6.279,33.75 4.429,28.689 4.429,28.689 C3.219,26.266 2.006,25.056 2.006,25.056 C-0.417,23.618 2.006,23.846 2.006,23.846 C4.429,23.846 5.639,26.269 5.639,26.269 C7.765,29.878 11.547,29.297 12.905,28.692 C12.905,27.482 13.435,25.65 14.115,25.059 C8.825,24.464 4.422,21.426 4.422,15.37 C4.422,9.314 5.638,8.104 6.849,6.891 C6.605,6.294 5.59,4.086 6.886,0.835 C6.886,0.835 9.266,0.835 11.689,4.468 C12.889,3.268 16.533,3.258 17.745,3.258 C18.953,3.258 22.599,3.268 23.799,4.468 C26.222,0.835 28.608,0.835 28.608,0.835 C29.904,4.086 28.89,6.294 28.645,6.891 C29.855,8.101 31.068,9.314 31.068,15.37 C31.068,21.426 26.671,24.462 21.379,25.059 C22.061,25.65 22.589,27.734 22.589,28.692 L22.592,37.166 Z" id="Cat_1_"></path>
        </g>
    </g>
</svg>