<?xml version="1.0" encoding="UTF-8"?>
<svg width="20px" height="20px" viewBox="0 0 20 20" version="1.1" xmlns="http://www.w3.org/2000/svg" xmlns:xlink="http://www.w3.org/1999/xlink">
    <!-- Generator: Sketch 49.3 (51167) - http://www.bohemiancoding.com/sketch -->
    <title>Artboard</title>
    <desc>Created with Sketch.</desc>
    <defs></defs>
    <g id="Artboard" stroke="none" stroke-width="1" fill="none" fill-rule="evenodd">
        <g id="logout" fill="#FFFFFF" fill-rule="nonzero">
            <path d="M10,8 C11.1,8 12,7.1 12,6 L12,2 C12,0.9 11.1,0 10,0 C8.9,0 8,0.9 8,2 L8,6 C8,7.1 8.9,8 10,8 Z" id="Shape"></path>
            <path d="M17.1,2.9 C16.8,2.6 16.5,2.5 16,2.5 C15.2,2.5 14.5,3.2 14.5,4 C14.5,4.4 14.7,4.8 14.9,5.1 C14.9,5.1 14.9,5.1 14.9,5.1 C14.9,5.1 14.9,5.1 14.9,5.1 C16.2,6.4 16.9,8.1 16.9,10 C16.9,13.9 13.8,17 9.9,17 C6,17 2.9,13.9 2.9,10 C2.9,8.1 3.7,6.3 5,5.1 C5.3,4.8 5.5,4.4 5.5,4 C5.5,3.2 4.8,2.5 4,2.5 C3.6,2.5 3.2,2.7 2.9,2.9 C1.1,4.7 0,7.2 0,10 C0,15.5 4.5,20 10,20 C15.5,20 20,15.5 20,10 C20,7.2 18.9,4.7 17.1,2.9 Z" id="Shape"></path>
        </g>
    </g>
</svg>