<?xml version="1.0" standalone="no"?>
<!DOCTYPE svg PUBLIC "-//W3C//DTD SVG 20010904//EN"
 "http://www.w3.org/TR/2001/REC-SVG-20010904/DTD/svg10.dtd">
<svg version="1.0" xmlns="http://www.w3.org/2000/svg"
 width="1000.000000pt" height="1000.000000pt" viewBox="0 0 1000.000000 1000.000000"
 preserveAspectRatio="xMidYMid meet">
<metadata>
Created by potrace 1.11, written by Peter Selinger 2001-2013
</metadata>
<g transform="translate(0.000000,1000.000000) scale(0.100000,-0.100000)"
fill="#000000" stroke="none">
<path d="M3116 8249 c-348 -51 -623 -255 -772 -573 -18 -39 -156 -354 -307
-701 -151 -346 -665 -1522 -1141 -2613 -521 -1193 -873 -2010 -882 -2050 -32
-133 1 -274 87 -381 40 -51 133 -116 209 -147 142 -57 -48 -54 3395 -52 3050
3 3162 4 3215 22 82 27 216 97 300 157 143 101 315 284 392 419 42 73 2354
5220 2372 5279 71 242 -108 554 -364 631 -64 20 -96 20 -1674 18 l-1609 -3
-861 -2023 -861 -2023 -800 4 c-679 3 -821 6 -940 21 -521 64 -824 176 -1031
381 -104 103 -154 189 -180 315 -103 484 433 1140 1274 1560 506 253 1033 386
1601 404 79 3 144 6 145 8 1 2 32 66 68 143 147 310 305 669 458 1040 34 83
64 156 67 163 4 9 -209 12 -1048 11 -580 -1 -1081 -5 -1113 -10z m3564 -2127
c0 -4 -32 -79 -71 -167 -133 -297 -488 -1158 -501 -1214 -2 -11 35 -13 212
-12 835 6 1345 -172 1528 -535 90 -179 93 -395 7 -650 -165 -494 -672 -1068
-1220 -1381 -127 -72 -224 -114 -371 -160 l-89 -28 -1172 -3 c-803 -2 -1173 1
-1173 8 0 5 394 922 876 2038 482 1115 885 2046 895 2070 l18 42 531 0 c291 0
530 -4 530 -8z"/>
<path d="M5857 4128 c-17 -40 -197 -444 -398 -898 -202 -454 -364 -829 -361
-834 3 -5 101 -6 226 -3 164 4 247 11 321 26 507 104 863 396 991 816 25 81
28 105 28 245 0 144 -1 160 -27 235 -16 44 -42 105 -60 135 -40 72 -167 198
-240 238 -80 45 -218 89 -302 97 -38 3 -87 8 -108 11 l-37 6 -33 -74z"/>
<path d="M4180 6263 c-542 -58 -1070 -468 -1242 -963 -30 -87 -33 -105 -33
-220 0 -122 1 -127 33 -192 55 -112 155 -183 302 -214 58 -12 111 -15 235 -11
88 3 170 9 183 13 18 5 52 65 158 277 75 148 172 351 216 451 77 172 368 855
368 863 0 4 -173 1 -220 -4z"/>
</g>
</svg>
