<?xml version="1.0" standalone="no"?>
<!DOCTYPE svg PUBLIC "-//W3C//DTD SVG 20010904//EN"
 "http://www.w3.org/TR/2001/REC-SVG-20010904/DTD/svg10.dtd">
<svg version="1.0" xmlns="http://www.w3.org/2000/svg"
 width="980.000000pt" height="980.000000pt" viewBox="0 0 980.000000 980.000000"
 preserveAspectRatio="xMidYMid meet">
<metadata>
Created by potrace 1.11, written by Peter Selinger 2001-2013
</metadata>
<g transform="translate(0.000000,980.000000) scale(0.100000,-0.100000)"
fill="#000000" stroke="none">
<path d="M2809 8043 c-1 -5 -1 -12 0 -17 1 -5 -5 -6 -12 -3 -8 3 -20 0 -27 -6
-10 -9 -11 -9 -6 0 5 9 2 11 -8 7 -9 -3 -13 -11 -9 -17 4 -6 0 -8 -10 -4 -10
4 -17 2 -17 -4 0 -6 -7 -8 -16 -5 -10 4 -13 2 -8 -6 5 -8 2 -9 -9 -5 -11 4
-17 1 -17 -9 0 -9 -5 -14 -12 -12 -7 3 -24 -8 -39 -23 -15 -15 -30 -25 -33
-22 -3 4 -6 1 -6 -6 0 -7 -4 -9 -10 -6 -9 6 -14 -8 -11 -28 1 -5 -3 -5 -9 -2
-14 8 -60 -33 -60 -52 0 -8 -4 -11 -10 -8 -5 3 -10 -1 -10 -10 0 -9 -4 -13
-10 -10 -5 3 -10 -1 -10 -10 0 -11 -5 -15 -16 -11 -8 3 -12 2 -9 -4 3 -5 -7
-24 -24 -42 -17 -18 -28 -35 -25 -37 3 -3 9 1 14 9 7 11 10 11 10 2 0 -7 -10
-17 -22 -22 -13 -5 -19 -9 -14 -9 4 -1 -3 -16 -18 -35 -14 -19 -26 -44 -26
-55 0 -11 -5 -23 -12 -27 -7 -4 -8 -3 -4 4 4 7 2 12 -4 12 -6 0 -8 -10 -4 -26
5 -19 4 -25 -5 -20 -10 7 -15 -12 -14 -51 1 -7 -6 -13 -14 -13 -8 0 -12 -4 -9
-8 3 -5 -3 -24 -13 -43 -10 -19 -16 -40 -14 -46 3 -7 0 -13 -6 -13 -6 0 -11
-9 -11 -20 0 -11 -4 -20 -10 -20 -5 0 -10 -12 -10 -26 0 -14 -4 -23 -10 -19
-9 5 -15 -24 -11 -48 1 -5 -3 -6 -9 -2 -9 6 -13 -7 -13 -47 0 -10 -3 -15 -7
-13 -4 3 -13 -2 -20 -10 -10 -12 -10 -15 0 -15 10 0 9 -5 -2 -17 -8 -10 -14
-28 -13 -40 1 -19 -1 -21 -14 -11 -9 7 -13 9 -9 4 4 -5 1 -21 -7 -37 -8 -15
-15 -37 -15 -49 0 -11 -4 -20 -10 -20 -5 0 -10 -9 -10 -19 0 -11 -4 -21 -10
-23 -5 -1 -11 -15 -12 -31 -1 -16 -7 -26 -14 -23 -7 3 -10 -3 -7 -15 3 -12 0
-19 -8 -19 -11 0 -11 -2 1 -10 13 -8 12 -10 -2 -10 -11 0 -18 -8 -18 -20 0
-11 -4 -20 -10 -20 -5 0 -9 -3 -9 -7 3 -21 -2 -44 -9 -39 -4 2 -9 -5 -9 -16
-1 -12 -7 -24 -14 -28 -8 -6 -8 -9 2 -13 10 -4 10 -6 2 -6 -7 -1 -13 -10 -13
-22 0 -11 -4 -17 -10 -14 -9 6 -11 1 -14 -37 -1 -7 -6 -19 -13 -26 -6 -7 -10
-22 -8 -33 3 -15 1 -18 -8 -11 -9 8 -12 3 -14 -16 0 -15 -6 -28 -12 -30 -6 -2
-11 -11 -11 -21 0 -9 -6 -23 -12 -30 -8 -9 -9 -12 -1 -7 8 4 8 0 0 -19 -7 -14
-17 -23 -23 -21 -6 2 -9 -9 -7 -30 1 -20 -2 -32 -7 -29 -10 6 -13 -3 -13 -37
0 -9 -5 -14 -13 -11 -8 3 -12 -4 -10 -21 2 -14 -3 -27 -10 -30 -8 -3 -14 -14
-14 -25 0 -11 -4 -23 -10 -26 -5 -3 -10 -15 -10 -26 0 -10 -6 -19 -12 -19 -9
0 -8 -4 2 -10 10 -6 11 -10 3 -10 -7 0 -13 -7 -13 -16 0 -8 -4 -13 -8 -10 -5
3 -9 0 -9 -7 -1 -20 -8 -42 -15 -48 -5 -3 -9 -17 -10 -32 -2 -19 -5 -23 -15
-16 -9 8 -11 5 -7 -14 2 -16 -3 -32 -13 -43 -10 -10 -17 -19 -15 -21 8 -11 0
-33 -10 -27 -8 5 -9 2 -5 -9 3 -9 1 -22 -6 -29 -7 -7 -19 -33 -27 -58 -7 -25
-18 -49 -23 -55 -7 -7 -7 -5 -2 4 5 9 4 12 -3 8 -5 -4 -8 -16 -5 -27 3 -12 0
-20 -7 -20 -10 0 -10 -3 0 -15 11 -13 10 -14 -4 -9 -9 4 -16 3 -15 -2 4 -23
-2 -45 -11 -39 -6 4 -10 -5 -10 -20 0 -14 -4 -24 -8 -21 -4 2 -9 -7 -10 -22
-1 -15 -7 -28 -12 -30 -6 -2 -10 -15 -10 -28 0 -14 -6 -27 -14 -30 -8 -3 -12
-13 -8 -26 3 -14 1 -19 -6 -14 -8 5 -12 0 -12 -13 0 -11 -6 -26 -14 -33 -7 -8
-12 -26 -10 -41 1 -15 -2 -29 -7 -32 -5 -3 -6 2 -2 11 4 12 3 15 -5 10 -7 -4
-12 -16 -12 -27 0 -10 -5 -19 -11 -19 -5 0 -9 -8 -8 -17 3 -34 -1 -44 -13 -37
-7 4 -10 4 -6 0 4 -5 -2 -24 -12 -43 -10 -19 -16 -42 -13 -51 5 -11 3 -13 -7
-7 -10 6 -12 4 -7 -8 3 -10 2 -17 -3 -17 -5 0 -7 -6 -4 -13 3 -8 -2 -20 -10
-27 -9 -7 -13 -17 -9 -23 4 -6 0 -8 -9 -5 -11 5 -14 0 -10 -18 2 -14 0 -24 -7
-24 -7 0 -10 -4 -6 -9 3 -6 -3 -14 -12 -20 -11 -6 -13 -11 -5 -11 10 0 10 -5
-2 -22 -9 -12 -16 -30 -16 -40 0 -10 -7 -18 -15 -18 -8 0 -12 -6 -9 -13 2 -7
-2 -26 -10 -42 -8 -16 -12 -33 -9 -38 3 -6 1 -7 -5 -3 -7 4 -13 2 -13 -3 -1
-6 -3 -15 -4 -21 -1 -5 -3 -15 -4 -21 0 -5 -7 -7 -13 -3 -7 4 -10 4 -6 -1 4
-4 2 -15 -5 -23 -6 -9 -7 -13 -1 -9 6 3 11 0 11 -8 0 -8 -3 -12 -7 -10 -11 7
-42 -74 -36 -92 4 -11 2 -14 -9 -9 -11 4 -15 -1 -15 -20 0 -13 -7 -27 -16 -31
-8 -3 -13 -12 -10 -19 3 -7 -3 -21 -12 -30 -9 -10 -16 -19 -14 -21 7 -9 0 -33
-8 -28 -6 4 -10 3 -9 -2 4 -21 -2 -44 -10 -39 -5 3 -9 0 -8 -7 1 -30 -4 -48
-11 -43 -5 3 -9 -1 -10 -9 -1 -8 -3 -22 -4 -30 -1 -8 -4 -15 -7 -15 -9 0 -32
-55 -34 -80 -1 -11 -6 -19 -12 -16 -7 2 -11 -7 -10 -25 1 -20 -3 -29 -13 -29
-9 0 -12 -3 -9 -7 4 -3 1 -13 -6 -21 -10 -13 -9 -15 3 -8 13 7 13 6 0 -6 -15
-13 -22 -31 -23 -55 0 -10 -3 -10 -15 0 -13 10 -14 9 -5 -7 13 -23 5 -65 -8
-44 -6 9 -9 7 -9 -9 0 -36 -1 -38 -16 -46 -8 -5 -11 -13 -8 -19 4 -6 0 -14 -7
-19 -8 -4 -14 -14 -15 -21 0 -7 -2 -21 -2 -31 -1 -10 -6 -15 -12 -12 -6 4 -8
-6 -6 -25 2 -22 0 -28 -8 -21 -11 10 -14 2 -18 -46 -1 -7 -8 -15 -16 -18 -12
-4 -12 -8 -1 -22 10 -12 10 -15 1 -9 -12 7 -34 -32 -25 -46 2 -5 -1 -8 -6 -8
-6 0 -11 -9 -11 -21 0 -15 -4 -19 -16 -15 -14 5 -15 4 -4 -9 9 -11 9 -15 1
-15 -7 0 -11 -8 -9 -17 2 -10 -2 -17 -9 -16 -6 1 -10 -8 -8 -23 1 -14 -3 -28
-11 -31 -7 -2 -10 -11 -7 -19 3 -8 0 -14 -5 -14 -6 0 -14 -16 -18 -35 -3 -20
-12 -35 -20 -35 -8 0 -11 -6 -8 -15 4 -8 1 -15 -6 -15 -9 0 -9 -4 1 -17 8 -9
9 -14 2 -10 -7 4 -14 -1 -18 -13 -4 -11 -11 -17 -17 -14 -6 4 -5 -3 2 -16 8
-15 8 -20 1 -16 -7 5 -11 -1 -11 -14 0 -13 -4 -19 -12 -14 -6 4 -8 3 -5 -3 3
-5 -1 -22 -8 -37 -8 -16 -13 -32 -10 -36 3 -4 -2 -10 -10 -14 -8 -3 -15 -17
-15 -31 0 -15 -4 -24 -10 -20 -10 6 -14 -15 -11 -44 2 -7 -2 -10 -8 -6 -10 6
-17 -24 -11 -50 1 -5 -2 -7 -6 -2 -10 10 -36 -52 -27 -66 3 -6 1 -7 -5 -3 -8
5 -12 0 -12 -13 0 -12 -4 -21 -10 -21 -5 0 -10 -9 -10 -19 0 -11 -5 -23 -11
-26 -6 -4 -8 -13 -5 -21 3 -8 -1 -17 -9 -20 -8 -4 -15 -12 -15 -19 0 -7 -10
-34 -22 -61 -12 -27 -23 -56 -24 -64 -2 -8 -8 -16 -13 -18 -6 -2 -11 -15 -11
-28 0 -14 -4 -22 -10 -19 -6 3 -7 -1 -4 -9 3 -9 1 -16 -6 -16 -6 0 -8 -4 -5
-10 3 -5 1 -10 -5 -10 -7 0 -10 -7 -6 -15 3 -8 -2 -19 -12 -24 -14 -8 -14 -11
-2 -11 12 0 11 -3 -3 -11 -9 -6 -15 -14 -12 -20 4 -5 1 -9 -4 -9 -6 0 -11 -12
-11 -26 0 -18 -4 -25 -14 -21 -10 4 -12 0 -9 -14 3 -10 -1 -29 -9 -41 -7 -13
-13 -33 -12 -46 1 -12 -2 -22 -6 -22 -4 0 -10 -7 -13 -14 -4 -11 -1 -13 11
-10 14 5 14 3 -2 -10 -17 -13 -17 -18 -5 -33 10 -12 11 -15 1 -9 -10 6 -13 -4
-11 -46 2 -29 7 -59 12 -65 5 -7 6 -13 2 -13 -4 0 -2 -7 5 -15 7 -8 9 -22 6
-31 -6 -15 -4 -15 10 -3 15 12 16 12 10 -7 -4 -15 -2 -24 9 -28 9 -3 15 -14
13 -23 -2 -10 2 -17 10 -16 11 3 16 -10 13 -30 -1 -5 3 -6 8 -2 6 3 16 -3 23
-15 7 -11 19 -20 26 -20 7 0 10 -4 7 -10 -3 -5 3 -10 15 -10 12 0 18 -5 15
-10 -3 -5 3 -10 13 -10 11 0 25 -6 32 -14 6 -8 19 -12 27 -9 10 4 14 2 10 -4
-4 -6 0 -14 9 -17 25 -10 36 -7 29 7 -4 6 3 1 14 -13 11 -14 21 -21 21 -17 0
4 9 3 20 -3 14 -8 20 -8 20 0 0 6 7 4 16 -4 19 -19 28 -21 18 -3 -6 8 -3 8 9
-2 9 -7 23 -11 31 -8 8 3 22 -1 33 -8 10 -8 25 -14 33 -14 10 0 8 3 -5 9 -16
7 -17 9 -3 9 9 1 20 -3 23 -9 4 -6 1045 -10 3051 -10 2438 0 3044 2 3038 12
-6 10 -5 10 7 1 12 -10 18 -10 29 0 10 10 11 9 5 -3 -6 -12 -5 -13 6 -3 7 7
33 13 57 13 32 0 41 3 36 13 -5 7 0 6 11 -3 11 -9 16 -10 11 -2 -7 12 4 16 32
13 6 -1 12 3 12 9 0 5 5 10 11 10 5 0 7 -6 4 -12 -4 -7 1 -4 9 6 9 11 16 16
16 12 0 -5 8 -2 17 5 14 12 16 12 9 -1 -4 -8 -1 -7 8 4 8 10 19 15 25 11 6 -3
11 -1 11 5 0 6 5 8 10 5 6 -3 10 -1 10 4 0 6 6 10 13 9 6 -2 11 2 10 9 -2 7 3
10 10 7 7 -2 24 4 36 15 13 12 28 18 34 14 6 -3 7 -1 3 5 -4 7 -1 12 9 12 9 0
13 5 9 11 -4 7 -1 10 7 7 7 -2 28 10 48 28 19 18 39 30 44 27 6 -3 7 -1 3 5
-4 7 -2 12 4 12 6 0 8 5 4 12 -5 8 -2 9 9 5 11 -4 17 -1 17 8 0 8 8 15 18 15
12 0 14 3 4 8 -9 6 -5 12 13 22 14 7 25 18 25 23 0 5 11 20 25 33 14 13 25 27
25 31 0 5 9 16 20 26 12 10 18 23 14 29 -5 8 -1 9 12 4 10 -4 15 -4 12 0 -4 4
-2 16 4 28 7 11 11 24 10 28 -1 4 7 10 18 13 11 4 17 12 13 21 -3 7 0 14 7 14
6 0 9 4 6 9 -4 5 -1 11 4 13 6 2 12 13 13 25 0 12 5 19 11 16 5 -3 7 5 4 20
-3 14 -2 26 1 25 22 -2 28 5 24 29 -4 23 -2 25 7 13 9 -12 11 -10 7 13 -2 15
0 30 6 34 6 4 7 1 2 -8 -5 -10 -5 -11 3 -4 6 6 12 19 14 30 1 11 9 26 16 33
11 12 16 35 13 55 -1 5 3 6 9 2 6 -3 10 3 10 15 0 12 4 19 9 16 4 -3 8 4 7 17
0 12 4 21 9 20 6 -1 11 10 12 25 0 14 8 31 15 36 8 6 13 16 11 23 -2 6 1 14 6
18 6 3 11 15 11 26 0 10 3 19 8 19 4 0 12 11 19 25 8 19 8 23 0 18 -7 -3 -3 3
7 15 11 12 15 22 10 22 -5 0 -3 4 4 9 8 5 15 20 15 34 1 14 5 25 8 24 4 -1 7
0 6 3 0 3 6 16 14 30 13 24 15 30 18 58 0 7 6 10 11 7 9 -6 12 -2 14 28 1 6 7
18 14 25 7 8 10 18 7 23 -4 5 -1 9 5 9 6 0 8 5 5 10 -3 6 -1 10 5 10 6 0 9 4
6 9 -4 5 -1 11 4 13 10 3 17 24 19 56 1 7 6 10 11 7 6 -3 10 3 10 14 0 11 5
23 10 26 6 3 10 15 10 26 0 11 6 22 14 25 8 3 12 12 9 20 -3 8 0 14 7 14 7 0
10 7 6 15 -3 8 -2 15 2 15 4 0 15 14 24 31 10 16 13 27 6 23 -6 -4 -4 6 5 22
8 16 21 44 29 62 7 17 16 32 20 32 5 0 8 9 8 21 0 13 4 18 12 13 8 -5 9 -2 5
9 -3 9 -2 19 3 22 5 3 6 13 3 22 -4 11 -3 14 5 9 7 -4 12 -1 12 8 0 8 8 20 18
26 15 11 15 11 -2 5 -18 -5 -18 -4 -5 12 22 28 39 61 39 78 0 8 5 15 10 15 6
0 10 12 10 26 0 14 4 23 10 19 6 -3 10 3 10 14 0 12 6 21 13 21 9 0 9 2 -1 9
-11 7 -10 9 3 15 9 3 13 10 10 16 -3 6 0 13 8 16 8 3 13 16 11 30 -2 19 1 23
10 15 9 -8 12 -3 12 17 -1 15 4 26 10 25 6 -1 10 11 9 28 -1 19 3 29 12 29 8
0 13 6 11 12 -3 7 1 19 8 26 7 7 11 19 8 26 -3 7 2 16 11 20 9 3 14 10 11 15
-4 5 0 15 7 23 7 7 14 15 14 18 7 37 17 60 25 60 5 0 6 10 2 22 -6 20 -5 21 8
10 13 -10 15 -9 15 5 0 41 4 54 13 48 6 -3 10 3 10 15 0 12 4 19 9 15 6 -3 8
3 6 15 -2 11 0 22 5 25 14 9 40 66 27 59 -7 -3 -5 0 4 8 9 7 14 19 12 26 -3 6
0 12 7 12 6 0 8 5 5 10 -3 6 -1 10 5 10 7 0 10 7 6 15 -3 8 -1 15 4 15 6 0 10
7 10 15 0 8 5 15 11 15 6 0 9 9 6 20 -3 12 -1 17 5 14 5 -3 8 2 6 12 -2 12 2
18 10 16 8 -1 11 2 8 7 -9 14 15 61 27 54 6 -3 7 -1 3 5 -6 10 12 62 26 72 4
3 9 16 11 29 2 12 9 26 16 30 7 5 12 11 12 15 -4 26 1 46 9 41 9 -6 14 7 11
31 -1 6 5 17 13 23 8 7 12 20 9 28 -4 11 -2 14 5 9 7 -4 12 -2 12 3 0 19 2 26
15 45 8 10 11 25 8 32 -3 8 1 14 11 14 10 0 13 6 9 15 -3 9 2 22 12 29 11 8
16 20 12 30 -4 10 -1 16 8 16 8 0 12 8 10 19 -2 11 3 22 11 25 9 3 14 15 12
28 -2 14 2 22 10 21 7 -2 12 7 12 23 0 17 4 23 13 18 7 -5 6 0 -3 11 -8 10
-10 16 -4 12 6 -3 16 5 23 19 9 20 9 24 -1 18 -7 -4 -5 1 4 12 9 10 18 23 20
29 2 5 7 9 12 7 5 -2 6 4 2 13 -3 9 1 18 10 22 13 5 13 7 2 14 -10 7 -10 9 0
9 6 0 12 9 12 20 0 11 5 20 10 20 6 0 10 12 10 26 0 14 4 23 9 20 5 -3 11 8
15 25 3 16 13 37 22 46 12 13 13 17 2 24 -10 7 -8 9 6 9 11 0 16 3 13 7 -4 3
0 14 9 24 8 9 16 27 16 40 1 13 8 32 16 41 8 9 11 22 6 29 -4 7 -3 10 3 6 6
-4 16 13 23 36 8 23 20 49 27 58 7 8 13 23 13 32 0 9 5 19 10 22 6 4 8 11 5
16 -4 5 1 9 9 9 8 0 15 8 15 18 -1 26 26 93 34 85 4 -3 7 3 7 15 0 12 6 22 13
22 9 0 9 2 -1 9 -11 6 -10 10 4 15 9 3 14 9 11 12 -3 3 3 22 14 41 12 20 14
32 7 28 -7 -4 -4 1 6 9 11 9 16 16 11 16 -4 0 0 10 11 22 12 13 13 18 4 13
-13 -8 -13 -7 -1 8 7 9 10 17 5 17 -4 0 1 7 12 15 10 8 15 15 10 15 -5 0 -2 8
5 17 12 14 12 16 -1 9 -9 -4 -8 -1 3 7 9 8 17 22 17 32 0 10 7 26 15 35 14 16
25 47 27 77 1 6 6 9 13 7 6 -3 11 6 12 18 1 13 7 24 13 26 5 2 10 12 10 23 0
21 19 60 35 71 6 4 6 8 1 8 -4 0 -1 11 8 25 9 13 16 34 16 45 0 11 7 23 16 27
13 5 13 7 2 14 -10 7 -11 9 0 9 7 0 10 5 7 10 -3 6 1 10 9 10 11 0 16 9 16 29
0 17 5 33 10 36 6 4 8 11 5 16 -4 5 -1 9 5 9 6 0 8 5 5 10 -3 6 -1 10 4 10 6
0 10 3 10 8 -4 21 2 32 14 26 7 -5 7 -1 -3 12 -8 10 -10 16 -6 12 11 -9 31 28
41 71 4 17 11 33 16 36 5 4 9 15 9 26 0 11 4 18 9 14 6 -3 8 4 6 15 -2 13 1
20 11 20 12 0 13 4 3 23 -6 12 -8 19 -4 15 10 -9 37 40 30 52 -3 5 1 12 9 17
15 8 16 11 16 39 0 8 4 13 9 10 4 -3 8 2 8 12 0 43 3 53 16 46 7 -5 6 0 -3 11
-9 11 -10 16 -2 11 8 -5 12 0 12 13 0 12 -1 22 -2 24 -1 1 4 12 10 24 9 16 9
23 -1 26 -9 4 -9 6 1 6 6 1 12 9 12 19 0 14 -2 15 -10 2 -5 -8 -10 -11 -10 -6
0 5 8 18 17 28 14 16 14 18 1 13 -11 -4 -15 0 -14 17 1 13 5 29 9 36 5 6 4 12
-2 12 -6 0 -8 6 -5 14 3 8 1 17 -4 20 -6 3 -8 15 -5 26 3 11 0 20 -6 20 -6 0
-11 6 -11 14 0 8 -6 17 -13 19 -9 4 -9 6 1 6 10 1 10 5 -2 17 -9 8 -14 20 -10
25 3 5 0 8 -8 7 -8 -2 -12 4 -10 16 2 10 -1 15 -7 12 -5 -3 -19 7 -31 24 -12
16 -18 30 -14 30 10 0 -14 25 -24 25 -18 1 -52 27 -52 40 0 8 -6 12 -14 9 -8
-3 -17 0 -22 7 -5 8 -3 10 6 4 9 -5 11 -4 6 3 -9 15 -3486 17 -3486 3 0 -5 -5
-22 -12 -38 -6 -15 -10 -34 -9 -41 1 -7 -5 -15 -13 -18 -8 -3 -12 -12 -9 -20
3 -8 0 -14 -7 -14 -6 0 -8 -4 -5 -10 3 -5 1 -10 -6 -10 -7 0 -9 -3 -6 -6 3 -4
1 -16 -5 -28 -12 -21 -13 -25 -17 -56 -1 -13 -2 -13 -12 0 -8 12 -10 12 -8 -5
3 -37 -1 -56 -10 -51 -5 3 -8 -6 -8 -20 0 -14 -6 -31 -12 -37 -9 -9 -11 -7 -6
8 5 15 4 16 -3 6 -5 -7 -9 -26 -8 -41 1 -20 -2 -26 -11 -23 -10 4 -13 -2 -9
-21 3 -15 0 -25 -6 -23 -6 1 -12 -7 -14 -17 -1 -10 -8 -22 -14 -26 -9 -6 -9
-9 1 -13 10 -4 10 -6 2 -6 -7 -1 -13 -10 -13 -21 0 -11 -4 -20 -10 -20 -5 0
-10 -14 -10 -31 0 -17 -4 -28 -10 -24 -6 3 -10 -4 -10 -17 0 -13 -7 -32 -15
-42 -8 -10 -12 -24 -8 -29 4 -7 -1 -8 -12 -3 -18 7 -18 6 0 -14 18 -20 18 -21
0 -14 -12 5 -16 4 -12 -3 4 -6 2 -17 -5 -25 -7 -7 -13 -19 -14 -25 -3 -39 -5
-44 -15 -38 -6 4 -10 1 -8 -6 1 -8 1 -23 0 -34 -1 -17 -3 -18 -11 -5 -8 12
-10 11 -10 -6 0 -12 -7 -34 -14 -50 -8 -15 -13 -31 -10 -36 3 -4 1 -8 -3 -8
-5 0 -9 -9 -10 -21 -1 -12 -10 -28 -20 -36 -10 -8 -11 -11 -3 -7 12 7 13 5 3
-8 -7 -8 -10 -18 -6 -21 3 -4 1 -7 -6 -7 -7 0 -9 -4 -6 -10 3 -5 1 -10 -4 -10
-6 0 -11 -9 -11 -19 0 -11 -6 -22 -12 -24 -10 -4 -10 -6 0 -6 10 -1 10 -5 -2
-16 -8 -9 -12 -23 -9 -32 4 -11 3 -14 -5 -9 -8 5 -12 0 -12 -13 0 -12 -5 -21
-11 -21 -5 0 -8 -4 -4 -9 3 -5 1 -12 -4 -16 -5 -3 -8 -14 -6 -25 2 -12 1 -19
-3 -16 -4 2 -12 -7 -19 -20 -8 -18 -8 -24 0 -24 7 0 4 -5 -6 -11 -13 -7 -16
-17 -11 -32 6 -19 5 -20 -8 -9 -13 10 -15 9 -13 -12 2 -15 -3 -27 -12 -30 -10
-4 -13 -14 -10 -27 3 -12 0 -22 -9 -26 -8 -3 -14 -16 -14 -29 0 -13 -4 -24 -8
-24 -5 0 -14 -19 -21 -42 -7 -24 -20 -54 -28 -67 -8 -13 -10 -20 -3 -16 11 7
-7 -33 -21 -45 -3 -3 -12 -26 -19 -52 -8 -26 -18 -44 -22 -42 -4 3 -8 -9 -8
-26 0 -21 -4 -29 -12 -24 -7 5 -9 2 -5 -9 3 -9 0 -18 -9 -21 -12 -4 -12 -10
-4 -26 9 -16 8 -19 -7 -13 -12 5 -15 2 -10 -10 3 -8 1 -17 -4 -19 -6 -2 -11
-10 -12 -18 -2 -8 -7 -21 -11 -29 -7 -10 -5 -12 5 -7 10 6 10 4 -1 -6 -8 -7
-16 -20 -18 -28 -2 -8 -8 -16 -13 -18 -5 -2 -9 -8 -9 -13 0 -6 6 -7 13 -3 6 4
4 -2 -6 -13 -9 -11 -14 -23 -10 -26 3 -4 2 -7 -3 -7 -11 0 -41 -68 -36 -82 1
-4 -2 -8 -8 -8 -5 0 -10 -14 -10 -30 0 -18 -6 -33 -15 -36 -9 -4 -14 -11 -13
-18 1 -6 -3 -20 -9 -31 -6 -11 -9 -28 -8 -38 2 -9 0 -15 -5 -12 -9 6 -20 -19
-20 -46 0 -11 -4 -17 -10 -14 -5 3 -10 -3 -10 -14 0 -11 -4 -23 -10 -26 -5 -3
-10 -17 -10 -31 0 -14 -4 -22 -10 -19 -6 4 -10 -6 -10 -23 0 -17 -6 -32 -14
-35 -7 -3 -12 -16 -11 -31 2 -19 -1 -23 -13 -19 -10 4 -13 2 -8 -6 5 -7 0 -21
-11 -33 -12 -14 -13 -18 -3 -13 13 8 13 7 1 -8 -7 -9 -10 -17 -5 -17 5 0 -1
-7 -13 -15 -15 -10 -19 -21 -16 -36 5 -17 3 -20 -8 -14 -11 7 -11 5 1 -10 8
-10 10 -16 5 -13 -6 4 -17 -2 -24 -14 -7 -11 -8 -17 -2 -13 6 3 11 2 11 -3 0
-6 -7 -12 -15 -16 -8 -3 -12 -12 -9 -21 3 -8 1 -15 -4 -15 -6 0 -14 -16 -18
-35 -3 -19 -11 -35 -16 -35 -6 0 -8 -9 -5 -19 3 -12 -1 -22 -9 -25 -8 -3 -14
-14 -14 -25 0 -11 -9 -36 -20 -56 -11 -20 -20 -42 -20 -50 0 -8 -6 -15 -12
-15 -9 0 -8 -4 2 -10 13 -8 12 -10 -3 -10 -13 0 -17 -5 -12 -19 3 -10 -1 -24
-10 -31 -8 -7 -12 -16 -9 -21 3 -5 0 -9 -6 -9 -6 0 -8 -4 -5 -10 3 -5 1 -10
-5 -10 -6 0 -8 -11 -6 -26 4 -19 2 -23 -7 -15 -12 9 -16 -2 -20 -56 0 -7 -4
-10 -9 -7 -4 3 -8 -4 -8 -16 0 -14 -4 -19 -12 -14 -9 5 -9 2 1 -9 11 -15 11
-17 -1 -17 -11 0 -14 -7 -10 -25 3 -17 0 -25 -10 -25 -10 0 -14 -9 -13 -29 1
-21 -2 -28 -12 -24 -9 3 -13 -3 -13 -21 0 -14 -4 -26 -10 -26 -5 0 -7 -7 -4
-15 4 -8 1 -15 -6 -15 -6 0 -9 -4 -5 -9 3 -5 1 -12 -5 -16 -5 -3 -10 -17 -10
-31 0 -13 -3 -24 -7 -24 -11 0 -33 -50 -33 -73 0 -10 -4 -15 -10 -12 -6 4 -10
-7 -10 -25 0 -17 -4 -29 -8 -26 -5 3 -9 0 -10 -7 0 -7 -3 -21 -6 -32 -2 -11
-5 -22 -5 -25 -1 -3 -6 2 -12 10 -9 12 -10 11 -6 -6 3 -13 -1 -21 -9 -21 -7 0
-11 4 -9 8 3 4 -13 9 -36 11 -29 3 -43 -1 -49 -12 -8 -12 -10 -12 -10 5 -1 11
-4 14 -7 8 -3 -9 -10 -10 -24 -3 -18 10 -24 6 -19 -15 1 -5 -8 -1 -19 9 -12
11 -21 14 -21 7 0 -9 -5 -9 -20 -1 -19 10 -25 6 -21 -14 1 -5 -5 -3 -14 4 -22
18 -74 17 -86 -1 -7 -12 -9 -12 -9 1 0 20 -98 19 -111 -1 -7 -12 -9 -11 -9 1
0 13 -53 15 -414 15 -228 0 -412 3 -409 8 2 4 -1 7 -6 7 -6 0 -11 -3 -11 -8 0
-9 -71 -9 -87 1 -6 4 -14 3 -17 -2 -5 -7 -41 -8 -41 -1 0 9 -43 6 -54 -3 -10
-8 -13 -8 -8 -1 4 7 0 14 -8 18 -8 3 -14 2 -14 -2 3 -18 -2 -26 -10 -14 -5 9
-40 14 -114 15 -59 1 -107 6 -107 11 0 5 -6 4 -13 -3 -10 -7 -17 -7 -24 0 -9
9 -113 21 -176 20 -9 0 -15 4 -13 8 3 4 -17 7 -44 7 -28 -1 -50 4 -50 9 0 6
-16 11 -37 12 -20 1 -40 8 -44 15 -7 10 -9 10 -9 -2 0 -12 -2 -12 -9 -2 -4 7
-12 12 -17 10 -5 -1 -20 4 -33 11 -17 9 -21 10 -16 1 5 -8 -1 -7 -16 2 -13 8
-34 14 -47 13 -17 -2 -20 1 -11 11 8 10 6 12 -10 9 -12 -2 -21 1 -21 8 0 7 -4
6 -10 -3 -8 -12 -10 -12 -16 3 -3 9 -15 17 -26 17 -11 0 -32 8 -46 18 -15 10
-48 29 -74 42 -27 13 -48 26 -48 30 0 3 -16 12 -36 19 -19 7 -33 15 -30 18 7
7 -14 27 -37 36 -10 4 -15 11 -12 17 3 6 -4 10 -17 10 -18 0 -20 2 -8 10 13 9
13 10 0 11 -8 1 -18 1 -22 0 -4 0 -5 6 -2 14 4 8 -1 17 -10 21 -9 3 -16 12
-16 20 0 8 -4 14 -10 14 -5 0 -10 7 -10 15 0 7 -8 19 -17 24 -10 6 -13 11 -8
11 6 0 5 4 -2 8 -6 4 -13 16 -15 27 -1 11 -10 25 -18 32 -8 6 -12 14 -8 18 3
3 0 18 -7 32 -7 14 -11 31 -9 38 3 7 0 16 -5 20 -6 3 -9 11 -6 16 4 5 3 15 -1
21 -12 19 -12 108 0 108 7 0 8 3 1 8 -14 10 -17 32 -5 32 7 0 7 6 0 19 -13 25
-13 41 0 21 11 -17 10 -18 14 45 1 17 6 36 10 44 7 10 5 12 -3 6 -8 -4 -6 4 4
18 9 15 14 30 11 36 -4 5 -1 15 6 23 7 7 15 24 16 38 2 14 8 29 13 34 5 6 9
18 9 27 0 9 7 22 15 29 8 7 12 16 9 21 -3 5 -1 9 4 9 4 0 14 16 22 35 7 19 18
31 23 28 6 -4 8 3 5 15 -4 15 -2 22 8 22 8 0 14 9 14 19 0 11 5 23 12 27 7 5
8 3 3 -6 -5 -9 -4 -11 4 -6 6 4 9 11 6 16 -3 5 -1 11 5 15 6 4 8 11 4 16 -3 5
0 8 8 7 7 -2 12 3 10 10 -1 6 5 12 13 12 9 0 12 6 8 17 -4 11 -3 14 5 9 7 -4
12 -2 12 3 0 6 9 20 20 31 11 11 18 20 15 20 -3 0 0 6 7 14 7 8 17 11 22 8 5
-3 6 0 2 6 -3 6 2 15 11 21 10 6 15 11 11 11 -12 0 68 80 81 80 6 0 8 7 4 17
-5 12 -2 15 9 10 16 -6 34 17 29 37 -1 5 5 6 14 3 8 -4 15 -2 15 4 0 12 25 39
35 39 4 0 20 15 36 33 16 17 29 28 29 24 0 -4 6 -2 14 5 8 7 12 16 9 21 -2 4
3 7 11 7 9 0 16 5 16 12 0 6 3 9 6 5 4 -3 22 11 42 31 19 20 32 31 28 25 -13
-23 4 -14 34 17 17 17 30 28 30 25 0 -5 11 2 43 31 7 6 18 9 26 6 8 -3 11 0 7
7 -4 6 -1 11 8 11 9 0 16 5 16 10 0 6 7 10 16 10 8 0 12 5 9 10 -3 6 1 10 10
10 18 0 50 17 88 48 16 12 33 20 38 16 5 -3 12 2 15 10 3 9 12 16 20 16 8 0
14 5 14 11 0 5 4 8 9 4 5 -3 12 -1 16 5 4 6 11 8 16 5 5 -4 9 1 9 10 0 9 5 13
10 10 6 -3 10 -2 10 3 0 6 16 13 35 16 19 4 35 12 35 18 0 5 7 8 15 4 9 -3 15
0 15 10 0 8 4 13 9 9 5 -3 12 -1 16 4 3 6 12 8 20 4 8 -3 15 0 15 6 0 6 6 11
14 11 8 0 16 5 18 10 2 6 17 11 35 13 17 1 29 5 26 10 -4 7 12 11 36 8 7 -2
11 1 8 6 -3 5 6 13 19 20 13 6 24 7 24 2 0 -5 5 -9 11 -9 5 0 7 5 4 10 -3 6 1
11 9 11 35 3 41 5 39 15 -1 6 12 10 28 9 17 -1 36 3 42 9 7 7 26 13 42 14 17
1 32 7 33 12 2 6 13 10 23 10 13 0 18 4 13 13 -6 10 -4 10 7 0 7 -7 18 -13 23
-13 6 0 4 5 -4 10 -12 8 -10 10 10 11 14 1 32 2 40 3 8 1 20 4 26 8 6 4 25 9
42 10 17 1 28 6 26 10 -3 4 6 9 20 10 14 0 32 1 39 2 6 1 18 8 25 16 12 13 13
12 7 -4 -5 -18 -4 -19 12 -4 10 8 26 14 36 13 9 -2 17 1 17 6 0 4 7 6 15 3 8
-4 15 -1 15 6 0 10 3 10 15 0 10 -9 15 -9 15 -1 0 6 17 11 39 11 22 0 43 5 46
10 5 8 12 7 23 -2 12 -10 14 -10 8 0 -5 9 4 12 38 12 25 0 48 5 51 10 5 8 11
8 19 1 8 -7 16 -7 22 -1 5 5 36 10 69 11 33 1 63 7 67 13 5 7 8 6 8 -3 0 -11
3 -11 15 -1 12 10 15 10 15 -1 1 -9 5 -8 15 5 8 11 15 16 15 10 0 -5 19 -8 42
-7 24 1 76 3 116 3 48 1 72 5 72 13 0 7 4 6 10 -3 9 -13 11 -13 20 0 6 10 10
11 10 3 0 -7 7 -13 16 -13 9 0 12 5 8 13 -6 10 -4 10 7 0 16 -15 33 -17 24 -3
-3 6 -2 10 4 10 5 0 12 -6 14 -12 3 -8 6 -6 6 5 1 9 6 17 12 17 5 0 15 14 20
30 6 17 16 30 22 30 6 0 7 3 4 7 -4 3 -1 13 6 21 10 13 9 15 -3 8 -8 -4 -5 1
8 10 12 9 22 22 22 29 0 19 30 75 41 75 5 0 8 3 8 8 -4 22 2 42 11 37 6 -4 10
7 10 25 0 18 4 29 10 25 10 -6 13 3 13 37 0 9 5 16 11 15 6 -1 10 6 10 15 -1
10 2 16 6 13 4 -3 11 2 14 11 3 8 2 12 -4 9 -6 -3 -7 1 -4 9 3 9 13 16 21 16
8 0 11 4 8 10 -3 5 0 20 7 32 7 13 11 27 10 31 -1 4 5 10 14 14 13 5 13 7 2
14 -10 7 -10 9 0 9 6 0 12 6 12 13 0 8 11 36 25 63 14 27 23 55 20 62 -2 6 3
12 11 12 11 0 13 6 9 20 -4 13 -1 22 9 26 8 3 12 12 9 20 -3 8 -1 14 5 14 9 0
27 47 24 63 -1 4 3 7 9 7 5 0 8 4 4 9 -3 5 0 15 7 23 7 7 15 22 16 33 2 11 9
23 15 27 7 4 8 8 3 8 -5 0 -3 7 4 15 7 8 10 21 6 30 -3 8 0 14 5 12 6 -1 13 9
15 23 3 14 9 27 14 28 6 2 10 15 10 28 0 14 4 22 10 19 6 -4 10 7 10 25 0 19
4 29 10 25 6 -4 10 -3 9 2 -1 4 -1 22 0 38 1 23 3 27 11 15 8 -12 10 -11 10 8
l0 22 -1130 0 c-621 0 -1131 -3 -1131 -7z m3671 -1974 c0 -5 -4 -9 -10 -9 -5
0 -9 -3 -9 -7 1 -5 0 -12 -1 -18 -1 -5 -3 -17 -4 -25 0 -8 -6 -14 -12 -13 -6
1 -10 -9 -9 -22 2 -13 -3 -26 -11 -29 -8 -3 -14 -16 -14 -30 0 -14 -4 -28 -10
-31 -5 -3 -10 -18 -10 -33 0 -21 -2 -24 -10 -12 -7 11 -10 8 -10 -16 0 -16 -5
-35 -11 -41 -9 -9 -16 -29 -18 -56 -1 -5 -5 -6 -10 -3 -4 3 -7 -6 -5 -19 1
-14 -2 -23 -7 -19 -8 4 -14 -17 -10 -38 0 -5 -5 -8 -12 -8 -8 0 -7 -4 3 -10
13 -8 12 -10 -4 -10 -12 0 -16 -5 -12 -15 3 -8 1 -15 -5 -15 -6 0 -9 -7 -5
-15 3 -8 2 -14 -2 -14 -19 3 -23 -2 -13 -15 9 -11 8 -15 -4 -20 -9 -3 -14 -10
-10 -15 3 -5 1 -12 -5 -16 -6 -4 -8 -11 -5 -16 4 -5 1 -9 -4 -9 -6 0 -11 -9
-11 -19 0 -11 -5 -23 -10 -26 -6 -4 -10 -12 -9 -18 3 -25 -1 -38 -10 -32 -6 3
-13 -10 -17 -30 -3 -19 -10 -38 -15 -41 -5 -3 -7 -10 -4 -15 4 -5 1 -9 -5 -9
-6 0 -8 -4 -5 -10 3 -5 2 -10 -4 -10 -6 0 -8 -6 -5 -14 3 -7 -2 -16 -10 -19
-9 -4 -16 -17 -16 -31 0 -13 -7 -36 -14 -52 -8 -15 -12 -32 -9 -37 3 -6 1 -7
-5 -3 -7 4 -12 1 -12 -9 0 -8 -4 -23 -9 -33 -5 -9 -12 -25 -15 -35 -3 -10 -10
-16 -14 -13 -5 3 -8 -5 -8 -17 1 -12 -4 -21 -10 -20 -6 1 -11 -4 -11 -12 0 -8
5 -11 11 -8 6 4 5 -1 -2 -10 -8 -9 -11 -21 -7 -27 3 -5 -2 -10 -11 -10 -10 0
-15 -3 -11 -6 3 -4 -2 -23 -13 -44 -11 -21 -16 -41 -12 -45 4 -5 1 -5 -7 0 -9
5 -12 3 -9 -6 2 -7 -3 -21 -11 -31 -9 -10 -16 -24 -16 -31 -1 -7 -5 -11 -10
-10 -6 1 -11 -9 -11 -22 -2 -23 -1 -23 95 -21 53 1 102 6 109 10 7 4 12 2 12
-4 0 -8 6 -8 20 0 14 7 20 7 20 0 0 -5 5 -10 11 -10 5 0 8 4 5 8 -6 10 25 9
41 -1 7 -5 22 -3 34 4 12 6 19 7 16 1 -7 -11 63 -9 81 2 7 4 12 2 12 -4 0 -8
6 -8 20 0 11 6 20 7 20 2 0 -4 36 -8 81 -8 58 -1 83 -5 90 -15 6 -10 9 -10 9
-1 0 6 7 12 16 12 8 0 13 -4 10 -8 -3 -5 1 -9 9 -9 8 0 12 4 9 9 -3 4 0 8 5 8
6 0 11 -4 11 -8 0 -8 18 -10 103 -12 20 -1 37 -5 37 -11 0 -5 23 -9 50 -9 28
0 50 -5 50 -10 0 -6 3 -9 8 -9 4 1 20 1 35 0 20 -1 26 -5 21 -13 -6 -10 -4
-10 8 0 13 10 17 10 21 -1 3 -8 16 -13 29 -12 12 1 26 -2 29 -7 3 -5 22 -10
41 -11 20 -1 34 -5 31 -10 -2 -4 4 -10 14 -13 10 -3 29 -11 43 -18 14 -8 30
-12 35 -10 6 3 22 -6 35 -18 13 -13 29 -23 35 -24 5 0 16 -2 23 -2 7 -1 11 -6
8 -10 -2 -4 4 -9 16 -9 11 -1 28 -12 39 -24 10 -12 19 -18 19 -14 0 5 6 1 13
-10 9 -11 19 -15 27 -10 10 6 12 4 7 -8 -5 -13 -1 -17 14 -17 11 0 17 -4 14
-10 -3 -5 2 -10 11 -10 10 0 14 -3 11 -7 -4 -3 5 -15 20 -25 16 -10 28 -22 28
-27 0 -5 11 -19 24 -30 13 -12 20 -21 15 -21 -5 0 -1 -5 8 -11 10 -5 15 -16
11 -25 -3 -9 0 -14 8 -12 7 2 14 -3 15 -9 1 -7 2 -18 3 -24 0 -5 7 -7 14 -3 6
4 9 4 5 -1 -4 -4 -1 -17 7 -29 8 -11 15 -33 15 -49 0 -16 4 -26 10 -22 6 4 10
-8 10 -30 0 -26 3 -34 13 -29 7 5 6 0 -3 -11 -8 -10 -10 -16 -4 -12 7 4 11 -8
12 -35 1 -23 8 -45 15 -50 9 -6 9 -8 0 -8 -7 0 -13 -7 -13 -15 0 -8 6 -15 13
-16 10 0 10 -2 0 -6 -7 -2 -13 -11 -13 -19 0 -8 6 -14 13 -15 10 0 10 -2 0 -6
-7 -2 -13 -11 -13 -19 0 -10 5 -12 13 -8 9 6 9 4 1 -7 -10 -12 -14 -41 -16
-119 0 -8 -5 -20 -10 -27 -5 -7 -7 -16 -4 -22 4 -5 -1 -16 -9 -24 -11 -12 -12
-17 -2 -20 9 -4 9 -7 0 -18 -7 -7 -13 -26 -13 -42 0 -19 -4 -28 -12 -24 -9 3
-13 -7 -12 -34 0 -21 -3 -36 -8 -33 -4 3 -8 -4 -8 -15 0 -12 -6 -21 -12 -21
-10 0 -10 -2 0 -9 11 -6 10 -10 -4 -15 -9 -3 -14 -9 -11 -13 4 -3 2 -12 -4
-20 -6 -7 -8 -13 -5 -13 4 0 -2 -10 -13 -22 -11 -11 -18 -25 -15 -29 2 -4 -1
-11 -7 -14 -5 -4 -8 -13 -5 -21 3 -8 2 -13 -2 -11 -4 1 -8 -1 -9 -6 -2 -4 -12
-16 -23 -27 -18 -18 -25 -39 -21 -63 1 -5 -3 -6 -9 -2 -5 3 -13 -2 -17 -12 -4
-10 -15 -25 -25 -35 -14 -12 -16 -17 -6 -21 8 -3 6 -6 -5 -6 -10 -1 -16 -5
-13 -10 3 -5 -1 -12 -10 -15 -8 -3 -12 -10 -9 -16 3 -5 1 -10 -5 -10 -6 0 -8
-5 -4 -12 4 -6 3 -8 -4 -4 -13 8 -43 -33 -35 -48 3 -6 3 -8 -2 -4 -11 10 -38
-20 -29 -34 5 -8 2 -9 -10 -5 -9 4 -15 3 -12 -1 3 -5 -4 -21 -15 -38 -11 -16
-19 -23 -19 -14 0 13 -2 13 -9 0 -6 -8 -7 -18 -5 -22 3 -4 -2 -8 -10 -8 -9 0
-16 -7 -16 -16 0 -8 -4 -12 -10 -9 -5 3 -10 -1 -10 -10 0 -9 -4 -13 -10 -10
-5 3 -10 -1 -10 -10 0 -9 -4 -13 -10 -10 -5 3 -10 -1 -10 -9 0 -9 -5 -16 -11
-16 -5 0 -7 -5 -4 -10 3 -6 -3 -10 -14 -10 -12 0 -20 -5 -18 -12 1 -7 -8 -17
-20 -23 -13 -5 -23 -16 -23 -23 0 -7 -4 -10 -10 -7 -5 3 -10 -1 -10 -10 0 -9
-4 -13 -10 -10 -5 3 -10 1 -10 -5 0 -6 -4 -8 -10 -5 -6 3 -10 -4 -11 -17 0
-13 -3 -18 -6 -11 -3 10 -7 10 -18 0 -7 -7 -11 -15 -8 -19 2 -5 -6 -8 -18 -8
-12 0 -19 -3 -16 -7 9 -8 -44 -44 -55 -37 -4 3 -5 -2 -2 -11 4 -10 2 -15 -7
-13 -8 2 -13 -3 -11 -10 1 -8 -1 -11 -6 -8 -14 8 -53 -24 -45 -37 4 -7 0 -6
-10 2 -17 13 -21 8 -19 -19 0 -3 -9 -7 -21 -7 -12 -1 -27 -10 -34 -19 -6 -9
-17 -13 -23 -9 -6 3 -9 3 -8 -2 2 -4 -1 -8 -5 -8 -5 0 -13 -8 -18 -17 -6 -10
-17 -18 -24 -18 -8 0 -15 -4 -15 -10 0 -5 -7 -10 -15 -10 -8 0 -15 -4 -15 -10
0 -5 -9 -10 -20 -10 -11 0 -20 -4 -20 -10 0 -5 -7 -10 -15 -10 -8 0 -15 -4
-15 -8 0 -9 -60 -36 -78 -35 -7 1 -11 -5 -8 -12 3 -9 0 -12 -10 -8 -8 3 -23
-2 -34 -12 -11 -10 -26 -15 -34 -12 -9 4 -30 -6 -48 -21 -18 -15 -29 -21 -24
-14 4 6 3 12 -2 12 -6 0 -13 -7 -16 -16 -4 -10 -13 -13 -26 -9 -14 4 -20 2
-18 -7 2 -7 -3 -12 -11 -10 -7 1 -20 -3 -29 -10 -12 -10 -14 -10 -8 -1 4 7 3
13 -2 13 -6 0 -12 -7 -16 -15 -3 -10 -15 -14 -35 -11 -20 2 -28 -1 -25 -9 3
-8 -3 -12 -18 -11 -13 1 -32 -5 -42 -13 -17 -14 -18 -14 -11 -1 8 13 6 13 -8
1 -9 -7 -23 -11 -32 -8 -8 4 -21 -1 -30 -9 -11 -12 -15 -12 -15 -2 0 10 -3 9
-10 -2 -9 -13 -10 -13 -10 0 0 13 -2 13 -9 1 -5 -8 -23 -14 -40 -13 -21 0 -29
-3 -25 -11 5 -8 3 -8 -6 0 -11 10 -17 10 -31 -3 -13 -12 -19 -12 -25 -3 -4 7
-3 10 4 5 6 -3 13 -2 16 3 7 11 -13 9 -33 -3 -10 -6 -12 -5 -7 2 9 16 -7 15
-22 0 -9 -9 -12 -9 -12 0 0 9 -5 9 -21 0 -18 -11 -23 -11 -26 0 -4 10 -8 10
-21 0 -12 -10 -16 -10 -19 0 -3 6 -9 12 -14 12 -6 0 -8 -4 -5 -8 2 -4 -4 -8
-14 -8 -10 0 -17 3 -14 7 5 9 -17 6 -33 -4 -8 -5 -13 -3 -13 4 0 8 -4 8 -15
-1 -10 -9 -15 -9 -15 -1 0 6 -5 11 -11 11 -5 0 -8 -4 -5 -8 3 -5 -1 -9 -9 -9
-8 0 -15 4 -15 9 0 4 -5 8 -11 8 -5 0 -7 -4 -4 -10 3 -5 1 -10 -4 -10 -6 0
-11 5 -11 10 0 6 -5 10 -11 10 -5 0 -7 -5 -4 -10 3 -5 -1 -10 -10 -10 -10 0
-13 5 -9 13 5 7 0 6 -11 -3 -14 -12 -19 -12 -23 -2 -3 9 -7 10 -17 2 -10 -8
-15 -8 -20 0 -5 8 -11 8 -21 -1 -11 -9 -14 -9 -14 1 0 9 -4 9 -17 -1 -11 -10
-14 -10 -9 -2 9 16 -6 17 -22 1 -9 -9 -12 -9 -12 0 0 9 -5 9 -21 0 -18 -11
-23 -11 -26 0 -4 10 -8 10 -21 0 -12 -10 -16 -10 -19 0 -3 6 -9 12 -14 12 -6
0 -8 -4 -5 -8 3 -5 -1 -9 -9 -9 -8 0 -12 4 -9 9 8 12 -10 10 -24 -4 -9 -9 -12
-9 -12 0 0 9 -5 9 -21 0 -18 -11 -23 -11 -26 0 -4 10 -8 10 -21 0 -12 -10 -16
-10 -19 0 -3 6 -9 12 -14 12 -6 0 -8 -4 -5 -8 2 -4 -4 -8 -14 -8 -10 0 -17 3
-14 7 5 9 -17 6 -33 -4 -8 -5 -13 -3 -13 4 0 8 -4 8 -15 -1 -10 -9 -15 -9 -15
-1 0 6 -5 11 -11 11 -5 0 -8 -4 -5 -8 3 -5 -1 -9 -9 -9 -8 0 -15 4 -15 9 0 4
-5 8 -11 8 -5 0 -7 -4 -4 -10 3 -5 1 -10 -4 -10 -6 0 -11 5 -11 10 0 6 -5 10
-11 10 -5 0 -7 -4 -4 -10 3 -5 -1 -10 -10 -10 -10 0 -13 5 -9 13 5 7 0 6 -11
-3 -14 -12 -19 -12 -23 -2 -3 9 -7 10 -17 2 -10 -8 -15 -8 -20 0 -5 8 -11 8
-21 -1 -11 -9 -14 -9 -14 1 0 9 -4 9 -17 -1 -11 -10 -14 -10 -9 -2 9 16 -6 17
-22 1 -9 -9 -12 -9 -12 0 0 9 -5 9 -21 0 -18 -11 -23 -11 -26 0 -4 10 -8 10
-21 0 -12 -10 -16 -10 -19 0 -3 6 -9 12 -14 12 -6 0 -8 -4 -5 -8 2 -4 -4 -8
-14 -8 -10 0 -17 3 -14 7 5 9 -17 6 -33 -4 -8 -5 -13 -3 -13 4 0 8 -4 8 -15
-1 -10 -9 -15 -9 -15 -1 0 6 -5 11 -11 11 -5 0 -8 -4 -5 -8 3 -5 -1 -9 -9 -9
-8 0 -15 4 -15 9 0 4 -5 8 -11 8 -5 0 -7 -4 -4 -10 3 -5 1 -10 -4 -10 -6 0
-11 5 -11 10 0 6 -5 10 -11 10 -5 0 -7 -5 -4 -10 3 -5 -1 -10 -10 -10 -10 0
-13 5 -9 13 5 7 0 6 -11 -3 -14 -12 -19 -12 -23 -2 -3 9 -7 10 -17 2 -10 -8
-15 -8 -20 0 -5 8 -11 8 -21 -1 -11 -9 -14 -9 -14 1 0 9 -4 9 -17 -1 -11 -10
-14 -10 -9 -1 9 15 -6 16 -22 0 -9 -9 -12 -9 -12 0 0 9 -5 9 -21 0 -18 -11
-23 -11 -26 0 -4 10 -8 10 -21 0 -12 -10 -16 -10 -19 0 -3 6 -9 12 -14 12 -6
0 -8 -4 -5 -8 2 -4 -4 -8 -14 -8 -10 0 -17 3 -14 7 5 9 -17 6 -33 -4 -8 -5
-13 -3 -13 4 0 8 -4 8 -15 -1 -10 -9 -15 -9 -15 -1 0 6 -5 11 -11 11 -5 0 -8
-4 -5 -8 3 -5 -1 -9 -9 -9 -8 0 -15 4 -15 9 0 4 -5 8 -11 8 -5 0 -7 -5 -4 -10
9 -14 -8 -13 -23 2 -8 8 -15 8 -27 -2 -10 -8 -15 -9 -15 -1 0 6 -5 11 -11 11
-5 0 -8 -4 -5 -8 2 -4 -4 -8 -14 -8 -10 0 -17 3 -15 6 2 3 -6 7 -18 7 -17 2
-19 0 -7 -7 12 -8 10 -10 -8 -10 -13 0 -20 4 -17 10 3 6 -4 10 -17 11 -17 0
-19 2 -7 7 9 4 15 17 14 29 -1 12 2 20 6 17 8 -4 25 35 21 48 -1 5 3 8 8 8 6
0 10 11 10 24 0 13 6 26 12 28 7 3 13 11 14 19 2 27 16 59 26 59 6 0 8 7 5 15
-4 8 -2 17 4 20 5 4 7 11 4 16 -4 5 -3 9 2 9 4 0 13 11 20 25 8 19 8 24 0 19
-7 -3 -3 2 7 10 11 9 17 19 13 22 -4 4 1 13 11 21 10 9 11 11 2 7 -12 -7 -13
-5 -3 8 7 8 10 18 6 21 -3 4 -1 7 6 7 8 0 11 6 7 16 -3 8 -2 13 2 10 4 -3 14
4 21 16 9 14 9 18 1 13 -8 -5 -8 0 1 16 7 13 14 26 14 29 0 3 6 15 13 26 6 12
8 24 5 28 -3 3 2 6 13 7 10 0 14 3 7 5 -9 4 -9 11 -1 29 6 14 15 22 21 18 6
-4 8 2 5 15 -4 12 -2 22 2 22 5 0 12 10 15 23 11 38 36 87 44 87 4 0 6 13 5
29 -1 22 2 28 12 24 10 -4 12 0 8 12 -5 11 -1 21 9 26 8 5 14 17 13 27 -2 9 4
23 13 30 9 8 10 11 4 7 -9 -4 -11 -1 -7 9 3 9 10 16 16 16 5 0 6 4 3 10 -3 6
-1 10 4 10 6 0 10 3 10 8 -1 4 -1 18 0 32 1 20 3 22 11 10 7 -11 10 -7 10 17
0 17 5 35 12 39 7 5 8 3 3 -6 -5 -8 -4 -11 3 -7 5 4 8 16 5 27 -3 11 0 20 6
20 6 0 10 3 10 8 -4 25 3 42 19 42 13 0 14 2 3 9 -9 6 -10 11 -2 15 6 4 9 12
6 17 -4 5 -2 9 4 9 5 0 12 14 16 30 4 17 11 30 16 30 5 0 9 8 9 19 0 27 25 72
36 63 4 -4 2 2 -6 12 -10 13 -10 17 -2 12 7 -4 12 -1 12 8 0 9 6 16 13 17 10
0 10 2 0 6 -7 2 -13 9 -13 14 0 6 4 8 9 5 12 -8 24 41 14 57 -4 7 1 6 11 -2
15 -13 17 -12 12 12 -2 15 0 30 6 33 7 5 8 2 3 -6 -5 -8 -4 -11 3 -7 5 4 9 18
8 32 -2 13 1 22 5 19 5 -3 10 0 10 5 1 6 2 17 3 24 1 6 8 11 14 9 10 -2 10 3
1 19 -8 15 -8 19 0 15 6 -4 11 0 11 8 0 9 5 16 11 16 5 0 9 10 7 23 -2 12 2
21 7 20 6 -1 11 10 11 23 1 14 10 34 20 45 9 10 14 19 9 19 -4 0 -1 7 6 16 7
9 14 25 16 36 2 11 13 34 25 51 12 17 16 27 9 22 -8 -4 -2 9 12 29 14 21 24
45 23 54 -2 9 3 23 11 30 7 7 13 22 13 33 0 10 5 19 11 19 5 0 7 5 3 11 -3 6
-1 15 7 19 12 8 18 26 21 57 1 7 5 10 10 7 4 -3 9 1 10 8 5 45 20 78 32 71 6
-4 4 2 -4 12 -9 11 -10 16 -2 11 8 -5 12 -1 12 12 0 11 6 22 14 25 9 4 12 14
9 26 -3 13 0 23 10 27 9 3 14 15 12 29 -1 13 3 23 9 22 6 -1 10 4 8 12 -1 7 5
20 15 28 10 8 12 11 5 8 -11 -6 -11 -3 0 16 7 13 17 27 22 30 5 4 6 11 2 17
-3 5 3 21 14 34 11 14 17 28 14 31 -3 3 2 16 10 29 9 14 13 28 10 31 -4 4 1 9
10 13 9 3 13 10 10 15 -3 6 0 16 6 24 7 8 9 15 4 15 -4 0 1 7 12 15 14 11 16
15 4 15 -12 1 -12 3 3 14 11 9 15 20 10 31 -5 14 -3 17 9 12 11 -4 15 0 14 11
-2 9 4 23 13 30 12 11 13 12 1 6 -12 -6 -13 -4 -2 7 6 7 12 23 12 36 0 13 5
23 11 23 5 0 7 -6 3 -12 -4 -8 -3 -9 2 -5 5 5 9 14 10 20 0 7 2 20 2 30 1 10
6 16 11 12 6 -3 8 6 5 20 -3 18 -1 23 10 19 10 -4 14 0 12 13 -2 10 2 21 8 25
8 5 7 8 -2 8 -7 0 -10 5 -7 10 4 6 11 7 17 4 6 -4 9 -1 6 7 -3 8 2 20 11 27 9
8 11 11 4 7 -9 -4 -8 3 2 21 8 15 11 32 8 37 -3 6 -1 7 5 3 8 -5 12 0 12 12 0
11 6 25 14 32 8 6 13 17 10 25 -3 7 -1 16 5 20 6 3 11 15 11 26 0 10 4 19 9
19 9 0 26 48 23 63 -1 4 3 7 9 7 6 0 9 9 6 20 -3 13 -1 18 6 13 6 -4 8 0 4 10
-4 10 -2 16 5 14 5 -1 12 6 13 16 2 10 11 30 20 44 9 14 12 22 5 18 -9 -5 -8
-1 1 16 7 13 13 27 14 31 0 3 4 10 9 15 6 5 6 2 1 -7 -5 -8 -4 -12 0 -7 5 4
11 20 13 35 2 14 7 32 13 38 5 6 6 14 2 17 -3 4 -1 7 6 7 7 0 9 5 6 10 -3 6
-1 10 4 10 6 0 11 12 11 26 0 14 4 23 10 19 6 -4 10 5 10 19 0 14 4 26 10 26
6 0 9 3 9 8 -4 21 2 32 14 26 7 -5 6 0 -3 11 -9 11 -10 16 -2 11 8 -5 12 1 12
19 0 15 4 24 10 20 9 -5 15 23 11 48 0 4 6 7 15 7 8 0 13 4 10 9 -8 12 4 42
13 37 4 -3 8 4 9 15 1 10 2 25 3 32 2 11 97 14 531 14 290 0 528 -4 528 -8z"/>
<path d="M5746 4172 c-3 -5 1 -9 9 -9 8 0 12 4 9 9 -3 4 -7 8 -9 8 -2 0 -6 -4
-9 -8z"/>
<path d="M5684 4163 c3 -4 -1 -15 -11 -25 -9 -10 -13 -18 -9 -18 4 0 -2 -10
-13 -22 -11 -11 -18 -25 -15 -30 3 -4 0 -8 -6 -8 -6 0 -8 -4 -5 -10 3 -5 1
-10 -5 -10 -6 0 -8 -4 -5 -10 3 -5 1 -10 -5 -10 -6 0 -8 -4 -5 -10 3 -5 1 -10
-5 -10 -6 0 -9 -4 -5 -9 3 -5 1 -12 -5 -16 -6 -4 -8 -11 -5 -16 4 -5 1 -9 -4
-9 -6 0 -11 -9 -11 -21 0 -11 -4 -17 -10 -14 -6 4 -10 -5 -10 -19 0 -14 -5
-26 -11 -26 -5 0 -8 -4 -4 -9 3 -5 1 -12 -5 -16 -6 -4 -7 -11 -4 -17 5 -7 2
-9 -7 -6 -11 4 -14 -1 -13 -24 2 -25 0 -27 -14 -16 -11 9 -14 9 -9 1 10 -16
-3 -64 -15 -57 -5 3 -9 0 -7 -7 3 -26 -1 -40 -10 -34 -6 3 -8 -4 -6 -15 2 -11
-1 -20 -6 -20 -6 0 -7 -4 -4 -10 3 -5 2 -10 -4 -10 -6 0 -14 -12 -17 -27 -4
-16 -15 -43 -25 -60 -10 -18 -16 -33 -12 -33 4 0 -2 -7 -13 -16 -10 -8 -12
-12 -4 -8 12 6 13 4 3 -7 -7 -7 -13 -21 -13 -32 0 -10 -4 -15 -10 -12 -6 3
-10 -4 -10 -17 0 -13 -7 -32 -15 -42 -8 -10 -12 -23 -9 -28 3 -4 -2 -11 -10
-14 -9 -3 -13 -11 -10 -16 4 -6 2 -13 -4 -17 -5 -3 -12 -15 -14 -26 -1 -11
-11 -29 -21 -39 -13 -15 -14 -22 -5 -28 12 -7 4 -12 -15 -9 -5 1 -6 -3 -3 -8
9 -15 -5 -42 -18 -34 -6 4 -4 -2 4 -12 9 -11 10 -16 3 -11 -12 6 -18 -11 -14
-36 0 -5 -4 -8 -9 -8 -6 0 -10 -9 -10 -20 0 -11 -4 -20 -10 -20 -5 0 -10 -11
-10 -25 0 -17 -4 -23 -14 -19 -11 4 -13 0 -9 -15 3 -12 -2 -27 -11 -36 -9 -9
-13 -21 -10 -26 3 -6 -2 -17 -12 -25 -11 -9 -12 -12 -4 -8 12 6 13 4 3 -7 -7
-7 -13 -21 -13 -31 0 -10 -6 -21 -14 -24 -8 -3 -12 -12 -10 -19 3 -7 1 -16 -5
-20 -6 -3 -11 -15 -11 -26 0 -13 -4 -18 -12 -13 -6 4 -8 3 -5 -3 3 -5 -2 -26
-13 -45 -10 -20 -16 -39 -13 -42 4 -3 0 -6 -7 -6 -7 0 -10 -3 -7 -7 4 -3 -1
-15 -10 -26 -13 -15 -14 -18 -3 -12 13 8 13 7 0 -10 -8 -10 -15 -27 -15 -37 0
-10 -4 -22 -10 -26 -5 -4 -16 -18 -23 -31 -11 -19 -11 -22 0 -16 7 3 6 1 -3
-7 -9 -7 -17 -17 -18 -23 -2 -5 -7 -9 -13 -7 -5 1 -7 -2 -3 -8 3 -6 12 -7 18
-3 8 5 8 2 0 -8 -11 -14 -8 -16 20 -17 17 -1 46 -5 62 -7 59 -11 84 -12 79 -3
-3 4 0 8 5 8 6 0 11 -4 11 -10 0 -5 7 -10 15 -10 8 0 15 5 15 11 0 6 7 3 16
-6 13 -13 19 -13 32 -3 11 10 16 10 19 1 2 -7 11 -9 19 -6 7 3 11 10 7 17 -4
6 1 5 10 -3 14 -11 20 -11 32 -1 13 11 14 10 9 -6 -7 -18 -7 -18 12 -2 16 14
23 15 34 5 10 -9 11 -9 6 1 -4 6 -3 12 3 12 5 0 14 -7 19 -16 8 -14 10 -14 15
-1 3 9 21 15 49 16 67 3 68 3 68 20 0 10 3 12 8 5 4 -6 16 -9 27 -7 11 3 28 4
38 4 9 0 15 4 12 8 -2 5 18 11 46 15 33 5 47 11 43 18 -4 7 -3 8 5 4 15 -10
53 3 46 15 -4 5 -2 9 4 9 5 0 12 -6 14 -12 4 -10 6 -10 6 0 1 7 6 10 11 7 6
-3 10 -1 10 4 0 6 3 11 8 10 14 -2 52 13 48 20 -3 4 7 8 22 9 15 1 35 12 45
23 10 12 20 19 24 16 3 -4 17 2 31 13 13 11 28 17 33 14 5 -3 8 0 7 7 -2 7 3
14 10 15 6 1 17 2 23 3 5 0 7 6 4 11 -3 6 -1 10 5 10 6 0 8 5 4 13 -5 7 0 6
11 -3 11 -9 16 -10 11 -2 -4 7 -1 12 9 12 10 0 13 5 9 12 -5 8 -2 9 9 5 11 -4
17 -1 17 8 0 14 12 19 32 16 5 0 7 2 7 7 -3 19 2 33 11 27 6 -3 10 1 10 9 0 9
3 15 8 13 4 -1 8 1 10 6 4 13 42 47 53 47 5 0 8 3 6 8 -6 9 19 33 27 25 3 -4
6 4 6 16 0 12 4 19 10 16 6 -3 10 0 10 8 0 8 7 20 15 27 9 7 13 15 11 17 -2 3
3 13 12 22 44 46 52 60 52 87 0 8 5 12 10 9 6 -3 10 3 10 15 0 12 4 19 8 16 4
-2 9 5 9 16 1 12 8 25 15 29 7 5 9 9 4 9 -5 0 -3 6 3 14 6 7 8 22 4 31 -5 15
-3 17 11 12 9 -4 15 -3 12 1 -3 5 1 21 9 36 8 14 10 24 5 21 -6 -4 -10 -2 -10
4 0 5 5 11 11 13 5 2 10 23 11 46 0 24 7 49 14 57 9 9 10 16 4 20 -6 4 -7 11
-3 18 9 15 10 177 1 177 -4 0 -5 7 -2 15 4 8 1 15 -5 15 -6 0 -11 5 -11 11 0
5 4 8 8 5 5 -3 9 1 9 9 0 8 -4 12 -9 9 -7 -5 -11 13 -11 58 0 9 -5 14 -13 11
-8 -3 -11 2 -8 14 3 11 -2 25 -10 32 -9 8 -16 22 -16 32 0 10 -10 25 -22 33
-12 9 -16 16 -9 16 7 0 -1 13 -18 29 -16 15 -27 31 -24 35 3 3 1 6 -6 6 -15 0
-42 26 -35 33 3 3 -4 8 -15 12 -12 3 -21 11 -21 16 0 5 -7 9 -15 9 -8 0 -15 5
-15 10 0 6 -6 10 -14 10 -8 0 -16 7 -20 15 -3 8 -13 15 -21 15 -9 0 -13 5 -9
11 3 6 -1 10 -12 9 -33 -4 -45 0 -39 10 5 9 -15 15 -37 11 -5 0 -8 4 -8 9 0 6
-11 10 -25 10 -14 0 -25 6 -25 13 0 8 -4 7 -10 -3 -6 -10 -10 -11 -10 -2 0 6
-9 12 -21 12 -11 0 -30 5 -41 11 -11 6 -18 7 -15 2 4 -5 0 -10 -8 -10 -8 0
-12 4 -9 9 3 4 -9 9 -25 9 -43 2 -48 3 -57 11 -4 4 -13 3 -21 -3 -10 -9 -13
-8 -13 1 0 9 -4 9 -12 3 -7 -6 -20 -9 -28 -8 -8 2 -28 6 -44 9 -16 3 -26 2
-22 -1z"/>
<path d="M9783 7665 c0 -8 4 -12 9 -9 5 3 6 10 3 15 -9 13 -12 11 -12 -6z"/>
<path d="M4040 6220 c15 -10 10 -11 -72 -13 -15 -1 -24 -5 -22 -9 5 -7 -21
-12 -67 -12 -10 0 -15 -5 -13 -11 3 -7 -4 -11 -18 -10 -29 3 -49 -5 -43 -15 3
-5 -6 -7 -20 -5 -15 1 -25 -3 -25 -10 0 -17 -36 -25 -51 -11 -9 8 -11 7 -7 -4
5 -15 -2 -18 -49 -22 -7 -1 -11 -6 -10 -12 1 -6 -6 -10 -17 -8 -13 3 -17 -1
-13 -11 4 -11 0 -13 -14 -10 -10 3 -19 0 -19 -6 0 -6 -3 -11 -7 -10 -16 2 -53
-14 -53 -22 0 -5 -7 -9 -15 -9 -8 0 -15 -5 -15 -11 0 -5 -4 -7 -10 -4 -5 3
-10 -2 -10 -12 0 -15 -2 -16 -10 -3 -6 10 -10 11 -10 3 0 -7 -7 -13 -15 -13
-8 0 -15 -4 -15 -10 0 -5 -7 -10 -16 -10 -8 0 -12 -4 -9 -10 3 -5 -3 -10 -14
-10 -12 0 -21 -5 -21 -11 0 -5 -3 -8 -7 -6 -11 5 -43 -30 -35 -38 4 -3 -1 -3
-11 1 -10 3 -17 1 -17 -6 0 -6 -4 -8 -10 -5 -5 3 -10 -1 -10 -9 0 -9 -6 -15
-12 -14 -7 2 -12 -3 -10 -10 1 -8 -2 -11 -8 -7 -5 3 -10 1 -10 -6 0 -7 -3 -10
-6 -6 -8 8 -34 -18 -34 -33 0 -6 -5 -8 -10 -5 -6 3 -13 -1 -16 -9 -3 -9 -13
-16 -22 -16 -8 0 -13 -3 -9 -6 3 -4 -12 -24 -33 -44 -22 -21 -40 -44 -40 -50
0 -6 -4 -9 -8 -6 -10 6 -43 -30 -35 -37 2 -3 -7 -13 -21 -22 -14 -10 -26 -24
-26 -31 0 -8 -7 -14 -16 -14 -8 0 -12 -4 -9 -10 3 -5 1 -10 -6 -10 -7 0 -10
-3 -6 -6 3 -3 -4 -17 -16 -31 -12 -13 -22 -28 -23 -31 -2 -20 -17 -41 -25 -36
-5 3 -9 -6 -9 -20 0 -14 -4 -26 -8 -26 -8 0 -33 -60 -38 -90 -2 -8 -7 -16 -13
-18 -5 -2 -7 -15 -5 -28 3 -18 1 -23 -7 -18 -9 5 -10 2 -6 -9 3 -9 1 -19 -4
-23 -6 -3 -9 -17 -6 -30 2 -14 -2 -25 -11 -29 -11 -4 -11 -9 -3 -19 6 -7 8
-16 5 -19 -10 -10 -12 -67 -3 -73 5 -3 6 -11 2 -17 -14 -21 -11 -107 4 -107 7
0 10 -6 6 -15 -3 -9 3 -25 13 -37 11 -12 13 -18 7 -14 -9 5 -11 2 -7 -8 3 -9
13 -16 21 -16 8 0 12 -4 8 -10 -3 -5 6 -17 20 -26 13 -9 22 -21 18 -27 -4 -6
0 -8 10 -4 11 4 17 1 17 -9 0 -8 4 -13 9 -10 5 3 14 -1 21 -9 7 -8 21 -15 32
-15 10 0 17 -4 14 -8 -3 -5 1 -9 9 -10 8 -1 22 -3 30 -4 8 -1 15 -5 15 -10 0
-4 3 -7 8 -7 20 3 43 -2 38 -9 -3 -5 1 -9 9 -9 8 0 11 5 8 11 -4 6 -1 6 8 -1
8 -6 36 -13 62 -14 40 -2 45 -5 34 -18 -9 -12 -5 -11 17 3 16 10 25 13 22 7
-4 -6 0 -11 11 -12 81 -4 101 -3 96 6 -3 6 0 5 6 -1 13 -12 54 -7 47 5 -2 3
23 7 56 8 34 2 68 9 76 15 11 9 14 9 9 1 -5 -7 4 -6 23 3 16 9 33 26 36 40 3
13 10 24 14 24 5 0 11 14 15 30 4 17 11 30 17 30 6 0 7 7 4 16 -3 8 -2 12 4 9
6 -3 10 5 10 19 0 14 5 28 12 32 7 5 8 3 3 -6 -5 -9 -4 -11 4 -6 6 4 9 12 5
17 -3 5 0 17 8 26 11 14 11 16 -2 8 -9 -5 -8 0 4 13 11 12 15 22 11 22 -5 0 0
7 11 16 10 8 14 13 7 10 -8 -5 -8 0 0 19 7 14 15 25 20 25 4 0 7 12 7 26 0 14
4 23 8 20 4 -2 9 7 10 21 1 13 12 39 24 56 12 17 16 27 9 23 -10 -6 -10 -3 1
13 7 12 17 21 23 21 5 0 3 5 -5 10 -9 6 -10 10 -3 10 6 0 14 14 18 30 4 17 10
30 15 30 4 0 7 12 5 26 -2 18 1 24 12 20 7 -3 13 0 12 7 -4 29 2 48 12 42 6
-4 10 -1 8 6 -3 29 1 40 14 33 8 -5 7 -2 -2 9 -12 15 -12 17 1 12 11 -4 14 2
12 24 -1 17 3 29 8 28 6 -1 12 7 14 17 1 10 6 22 11 25 4 3 8 13 8 21 0 8 5
14 11 13 7 -1 11 3 11 10 -1 41 4 67 13 62 6 -3 10 3 10 14 0 11 5 23 10 26 6
3 10 15 10 26 0 10 5 19 11 19 6 0 9 9 6 20 -3 11 -1 20 5 20 6 0 8 7 4 15 -3
8 0 14 7 12 7 -1 11 4 9 12 -2 7 5 23 15 34 10 11 12 17 6 13 -9 -5 -11 -2 -7
8 3 9 10 16 15 16 5 0 8 3 7 8 -3 15 14 62 22 57 4 -3 8 1 7 8 0 6 1 23 2 37
1 20 3 22 11 10 7 -11 10 -7 10 18 0 24 4 31 13 26 7 -5 7 -2 -2 10 -12 15
-12 17 0 14 8 -2 14 4 14 12 0 8 5 20 11 27 6 6 10 23 9 37 -2 19 1 23 13 19
9 -4 13 -2 9 4 -3 5 1 22 8 37 17 31 12 46 -14 46 -9 0 -23 6 -30 13 -11 10
-13 10 -7 0 4 -7 2 -13 -3 -13 -6 0 -11 5 -11 10 0 6 -12 10 -26 10 -14 0 -23
-4 -20 -8 2 -4 -6 -9 -19 -10 -13 -1 -27 3 -30 8 -3 6 -12 10 -18 10 -7 0 -6
-4 3 -10z"/>
<path d="M3395 4610 c-3 -6 1 -7 9 -4 18 7 21 14 7 14 -6 0 -13 -4 -16 -10z"/>
</g>
</svg>
